<svg xmlns:dc="http://purl.org/dc/elements/1.1/" xmlns:cc="http://creativecommons.org/ns#" xmlns:rdf="http://www.w3.org/1999/02/22-rdf-syntax-ns#" xmlns:svg="http://www.w3.org/2000/svg" xmlns="http://www.w3.org/2000/svg" xmlns:sodipodi="http://sodipodi.sourceforge.net/DTD/sodipodi-0.dtd" xmlns:inkscape="http://www.inkscape.org/namespaces/inkscape" version="1.1" x="0px" y="0px" viewBox="0 0 100 125"><g transform="translate(0,-952.36218)"><path style="text-indent:0;text-transform:none;direction:ltr;block-progression:tb;baseline-shift:baseline;color:#000000;enable-background:accumulate;" d="M 50 6 C 40.616595 6 33 13.61659 33 23 L 33 24 L 26 24 C 22.709883 24 20.110466 26.7024 20 29.90625 L 18 87.90625 C 17.883813 91.27595 20.709894 94 24 94 L 76 94 C 79.290106 94 82.11618 91.27595 82 87.90625 L 80 29.90625 C 79.88953 26.7024 77.290118 24 74 24 L 67 24 L 67 23 C 67 13.61659 59.383405 6 50 6 z M 50 10 C 57.236595 10 63 15.76341 63 23 L 63 24 L 37 24 L 37 23 C 37 15.76341 42.763405 10 50 10 z M 26 28 L 33 28 L 33 33.34375 C 30.679863 34.175485 29 36.409742 29 39 C 29 42.29002 31.709981 45 35 45 C 38.290019 45 41 42.29002 41 39 C 41 36.409742 39.320137 34.175485 37 33.34375 L 37 28 L 63 28 L 63 33.34375 C 60.679863 34.175485 59 36.409742 59 39 C 59 42.29002 61.709981 45 65 45 C 68.290019 45 71 42.29002 71 39 C 71 36.409742 69.320137 34.175485 67 33.34375 L 67 28 L 74 28 C 75.141564 28 75.957744 28.83699 76 30.0625 L 78 88.0625 C 78.03654 89.1223 77.141576 90 76 90 L 24 90 C 22.858424 90 21.963459 89.1223 22 88.0625 L 24 30.0625 C 24.04225 28.83699 24.858437 28 26 28 z M 35 37 C 36.128258 37 37 37.87174 37 39 C 37 40.12826 36.128258 41 35 41 C 33.871742 41 33 40.12826 33 39 C 33 37.87174 33.871742 37 35 37 z M 65 37 C 66.128258 37 67 37.87174 67 39 C 67 40.12826 66.128258 41 65 41 C 63.871742 41 63 40.12826 63 39 C 63 37.87174 63.871742 37 65 37 z " transform="translate(0,952.36218)" fill="#000000" fill-opacity="1" stroke="none" marker="none" visibility="visible" display="inline" overflow="visible"/></g><text x="0" y="115" fill="#000000" font-size="5px" font-weight="bold" font-family="'Helvetica Neue', Helvetica, Arial-Unicode, Arial, Sans-serif">Created by iconsphere</text><text x="0" y="120" fill="#000000" font-size="5px" font-weight="bold" font-family="'Helvetica Neue', Helvetica, Arial-Unicode, Arial, Sans-serif">from the Noun Project</text></svg>